<?xml version="1.0" encoding="iso-8859-1"?>
<!-- Generator: Adobe Illustrator 18.0.0, SVG Export Plug-In . SVG Version: 6.00 Build 0)  -->
<!DOCTYPE svg PUBLIC "-//W3C//DTD SVG 1.1//EN" "http://www.w3.org/Graphics/SVG/1.1/DTD/svg11.dtd">
<svg width='15' height='15' version="1.1" id="Capa_1" xmlns="http://www.w3.org/2000/svg" xmlns:xlink="http://www.w3.org/1999/xlink" x="0px" y="0px"
	 viewBox="0 0 58 58" style="enable-background:new 0 0 58 58;" xml:space="preserve">
<g fill="rgba(255, 255, 255, .9)">
	<path d="M36.196,50.332l-7-1.4c-0.032-0.006-0.063,0.003-0.095,0c-0.07-0.007-0.136-0.007-0.205,0
		c-0.063,0.007-0.123,0.017-0.182,0.036c-0.032,0.01-0.065,0.009-0.096,0.021c-0.032,0.013-0.056,0.038-0.086,0.054
		c-0.042,0.022-0.083,0.041-0.121,0.07l-6.576,1.096c-0.544,0.091-0.913,0.606-0.822,1.151c0.082,0.489,0.505,0.835,0.985,0.835
		c0.054,0,0.11-0.004,0.166-0.014l3.782-0.63l-1.854,1.854c-0.391,0.391-0.391,1.023,0,1.414c0.195,0.195,0.451,0.293,0.707,0.293
		s0.512-0.098,0.707-0.293L28,52.327v3.186c0,0.552,0.448,1,1,1s1-0.448,1-1v-3.186l2.493,2.493
		c0.195,0.195,0.451,0.293,0.707,0.293s0.512-0.098,0.707-0.293c0.391-0.391,0.391-1.023,0-1.414l-1.865-1.865l3.762,0.752
		c0.066,0.013,0.132,0.02,0.197,0.02c0.467,0,0.885-0.329,0.979-0.804C37.089,50.968,36.738,50.441,36.196,50.332z"/>
	<path d="M33.974,17.282c0.33,0.966,0.46,1.32,0.687,1.941c0.201,0.549,0.478,1.304,1.03,2.857
		c0.955,2.684,1.391,6.061,1.296,10.039c-0.143,5.986-1.561,11.262-3.684,14.523c5.912-2.87,11.263-8.975,11.698-16.373
		c0.125-2.144-0.174-4.109-0.889-5.84c-1.015-2.454-1.662-5.165-1.945-8.086C34.614,9.869,32.999,2.381,32.98,2.289l-0.164-0.802
		h-1.074l0.786,10.535C32.969,13.991,33.456,15.76,33.974,17.282z"/>
	<path d="M12.998,30.269c0.433,7.363,5.735,13.448,11.614,16.334c-2.109-3.264-3.516-8.522-3.659-14.485
		c-0.096-3.976,0.34-7.354,1.296-10.039c0.55-1.546,0.827-2.301,1.027-2.85c0.229-0.625,0.358-0.979,0.689-1.948
		c0.521-1.53,1.009-3.305,1.448-5.276l1.151-10.519H25.18L25.02,2.291c-0.018,0.091-1.587,7.496-9.047,13.946
		c-0.368,2.97-1.062,5.717-2.086,8.192C13.171,26.16,12.872,28.125,12.998,30.269z"/>
	<path d="M25.155,19.918c-0.2,0.545-0.474,1.296-1.021,2.833c-0.861,2.419-1.269,5.642-1.181,9.32
		c0.21,8.767,3.146,14.896,5.91,15.875h0.215c2.764-0.979,5.7-7.107,5.91-15.875c0.088-3.68-0.32-6.902-1.181-9.32
		c-0.549-1.543-0.824-2.294-1.024-2.84c-0.232-0.634-0.365-0.996-0.702-1.983c-0.549-1.609-1.06-3.474-1.52-5.542l-0.021-0.143
		L29.738,1.487h-1.162l-1.197,10.899c-0.458,2.064-0.97,3.928-1.52,5.542C25.521,18.918,25.389,19.28,25.155,19.918z"/>
	<path d="M48.217,20.464c-1.389-0.743-2.649-1.54-3.804-2.367c0.325,1.984,0.837,3.849,1.548,5.568
		c0.832,2.012,1.181,4.273,1.037,6.721c-0.451,7.681-5.683,14.09-11.709,17.457C48.77,46.515,58,40.366,58,32.487
		C58,27.85,54.421,23.461,48.217,20.464z"/>
	<path d="M11.002,30.386c-0.144-2.447,0.205-4.708,1.037-6.721c0.716-1.731,1.258-3.613,1.633-5.62
		c-1.167,0.839-2.443,1.647-3.852,2.401C3.579,23.461,0,27.85,0,32.487c0,7.527,9.117,13.609,22.462,15.22
		C16.541,44.304,11.447,37.961,11.002,30.386z"/>
</g>
<g>
</g>
<g>
</g>
<g>
</g>
<g>
</g>
<g>
</g>
<g>
</g>
<g>
</g>
<g>
</g>
<g>
</g>
<g>
</g>
<g>
</g>
<g>
</g>
<g>
</g>
<g>
</g>
<g>
</g>
</svg>
